<?xml version="1.0" standalone="no"?>
<!DOCTYPE svg PUBLIC "-//W3C//DTD SVG 20010904//EN"
 "http://www.w3.org/TR/2001/REC-SVG-20010904/DTD/svg10.dtd">
<svg version="1.0" xmlns="http://www.w3.org/2000/svg"
 width="100.000000pt" height="100.000000pt" viewBox="0 0 100.000000 100.000000"
 preserveAspectRatio="xMidYMid meet">

<g transform="translate(0.000000,100.000000) scale(0.100000,-0.100000)"
fill="#000000" stroke="none">
<path d="M756 938 c-74 -29 -172 -47 -296 -54 l-111 -7 -156 -310 c-178 -357
-174 -314 -39 -391 127 -73 289 -120 451 -132 l85 -7 136 277 c96 195 134 280
126 288 -6 6 -14 8 -20 4 -5 -3 -67 -123 -137 -266 -148 -299 -117 -272 -281
-245 -137 22 -156 34 -58 34 149 2 120 -32 303 342 89 181 161 336 161 345 0
9 -7 14 -16 12 -10 -2 -78 -129 -178 -328 l-161 -325 -90 -3 c-85 -3 -207 10
-232 26 -6 4 26 8 71 8 50 1 101 9 134 20 l53 19 169 348 c94 191 170 352 170
357 0 15 -28 11 -84 -12z m-135 -355 c-175 -356 -154 -335 -321 -335 -84 -1
-210 16 -210 28 0 2 63 129 139 282 l139 278 133 11 c74 7 163 21 199 31 36
10 67 17 69 16 1 -2 -65 -141 -148 -311z"/>
</g>
</svg>
